<?xml version="1.0" encoding="UTF-8" standalone="no"?>
<svg xmlns="http://www.w3.org/2000/svg" contentScriptType="application/ecmascript" contentStyleType="text/css"
     height="671px" preserveAspectRatio="none" style="width:759px;height:671px;background:#FFFFFF;" version="1.1"
     viewBox="0 0 759 671" width="759px" zoomAndPan="magnify">
    <defs>
        <filter height="300%" id="f9wu4lzlmkn2p" width="300%" x="-1" y="-1">
            <feGaussianBlur result="blurOut" stdDeviation="2.0"/>
            <feColorMatrix in="blurOut" result="blurOut2" type="matrix"
                           values="0 0 0 0 0 0 0 0 0 0 0 0 0 0 0 0 0 0 .4 0"/>
            <feOffset dx="4.0" dy="4.0" in="blurOut2" result="blurOut3"/>
            <feBlend in="SourceGraphic" in2="blurOut3" mode="normal"/>
        </filter>
    </defs>
    <g>
        <rect fill="#FFFFFF" filter="url(#f9wu4lzlmkn2p)" height="450.0625" style="stroke:#A80036;stroke-width:1.0;"
              width="10" x="132" y="119.4297"/>
        <rect fill="#FFFFFF" filter="url(#f9wu4lzlmkn2p)" height="25" style="stroke:#A80036;stroke-width:1.0;"
              width="10" x="137" y="156.5625"/>
        <rect fill="#FFFFFF" filter="url(#f9wu4lzlmkn2p)" height="180.3984" style="stroke:#A80036;stroke-width:1.0;"
              width="10" x="137" y="368.0938"/>
        <rect fill="#FFFFFF" filter="url(#f9wu4lzlmkn2p)" height="14" style="stroke:#A80036;stroke-width:1.0;"
              width="10" x="314.5" y="217.6953"/>
        <rect fill="#FFFFFF" filter="url(#f9wu4lzlmkn2p)" height="63.1328" style="stroke:#A80036;stroke-width:1.0;"
              width="10" x="507" y="260.8281"/>
        <rect fill="#FFFFFF" filter="url(#f9wu4lzlmkn2p)" height="126.2656" style="stroke:#A80036;stroke-width:1.0;"
              width="10" x="507" y="402.2266"/>
        <rect fill="#FFFFFF" filter="url(#f9wu4lzlmkn2p)" height="68.1328" style="stroke:#A80036;stroke-width:1.0;"
              width="10" x="512" y="439.3594"/>
        <rect fill="#FFFFFF" filter="url(#f9wu4lzlmkn2p)" height="14" style="stroke:#A80036;stroke-width:1.0;"
              width="10" x="618" y="289.9609"/>
        <rect fill="#FFFFFF" filter="url(#f9wu4lzlmkn2p)" height="14" style="stroke:#A80036;stroke-width:1.0;"
              width="10" x="698.5" y="473.4922"/>
        <line style="stroke:#A80036;stroke-width:1.0;stroke-dasharray:5.0,5.0;" x1="33" x2="33" y1="88.2969"
              y2="587.4922"/>
        <line style="stroke:#A80036;stroke-width:1.0;stroke-dasharray:5.0,5.0;" x1="137" x2="137" y1="88.2969"
              y2="587.4922"/>
        <line style="stroke:#A80036;stroke-width:1.0;stroke-dasharray:5.0,5.0;" x1="319" x2="319" y1="88.2969"
              y2="587.4922"/>
        <line style="stroke:#A80036;stroke-width:1.0;stroke-dasharray:5.0,5.0;" x1="512" x2="512" y1="88.2969"
              y2="587.4922"/>
        <line style="stroke:#A80036;stroke-width:1.0;stroke-dasharray:5.0,5.0;" x1="623" x2="623" y1="88.2969"
              y2="587.4922"/>
        <line style="stroke:#A80036;stroke-width:1.0;stroke-dasharray:5.0,5.0;" x1="703" x2="703" y1="88.2969"
              y2="587.4922"/>
        <text fill="#000000" font-family="sans-serif" font-size="14" lengthAdjust="spacing" textLength="50" x="5"
              y="84.9951">Officer
        </text>
        <ellipse cx="33" cy="15" fill="#FEFECE" filter="url(#f9wu4lzlmkn2p)" rx="8" ry="8"
                 style="stroke:#A80036;stroke-width:2.0;"/>
        <path d="M33,23 L33,50 M20,31 L46,31 M33,50 L20,65 M33,50 L46,65 " fill="none" filter="url(#f9wu4lzlmkn2p)"
              style="stroke:#A80036;stroke-width:2.0;"/>
        <text fill="#000000" font-family="sans-serif" font-size="14" lengthAdjust="spacing" textLength="50" x="5"
              y="599.4873">Officer
        </text>
        <ellipse cx="33" cy="612.7891" fill="#FEFECE" filter="url(#f9wu4lzlmkn2p)" rx="8" ry="8"
                 style="stroke:#A80036;stroke-width:2.0;"/>
        <path d="M33,620.7891 L33,647.7891 M20,628.7891 L46,628.7891 M33,647.7891 L20,662.7891 M33,647.7891 L46,662.7891 "
              fill="none" filter="url(#f9wu4lzlmkn2p)" style="stroke:#A80036;stroke-width:2.0;"/>
        <rect fill="#FEFECE" filter="url(#f9wu4lzlmkn2p)" height="30.2969" style="stroke:#A80036;stroke-width:1.5;"
              width="128" x="71" y="53"/>
        <text fill="#000000" font-family="sans-serif" font-size="14" lengthAdjust="spacing" textLength="114" x="78"
              y="72.9951">FlightController
        </text>
        <rect fill="#FEFECE" filter="url(#f9wu4lzlmkn2p)" height="30.2969" style="stroke:#A80036;stroke-width:1.5;"
              width="128" x="71" y="586.4922"/>
        <text fill="#000000" font-family="sans-serif" font-size="14" lengthAdjust="spacing" textLength="114" x="78"
              y="606.4873">FlightController
        </text>
        <rect fill="#FEFECE" filter="url(#f9wu4lzlmkn2p)" height="30.2969" style="stroke:#A80036;stroke-width:1.5;"
              width="209" x="213" y="53"/>
        <text fill="#000000" font-family="sans-serif" font-size="14" lengthAdjust="spacing" textLength="195" x="220"
              y="72.9951">FlightRegistrationValidator
        </text>
        <rect fill="#FEFECE" filter="url(#f9wu4lzlmkn2p)" height="30.2969" style="stroke:#A80036;stroke-width:1.5;"
              width="209" x="213" y="586.4922"/>
        <text fill="#000000" font-family="sans-serif" font-size="14" lengthAdjust="spacing" textLength="195" x="220"
              y="606.4873">FlightRegistrationValidator
        </text>
        <rect fill="#FEFECE" filter="url(#f9wu4lzlmkn2p)" height="30.2969" style="stroke:#A80036;stroke-width:1.5;"
              width="148" x="436" y="53"/>
        <text fill="#000000" font-family="sans-serif" font-size="14" lengthAdjust="spacing" textLength="134" x="443"
              y="72.9951">FlightManagerImpl
        </text>
        <rect fill="#FEFECE" filter="url(#f9wu4lzlmkn2p)" height="30.2969" style="stroke:#A80036;stroke-width:1.5;"
              width="148" x="436" y="586.4922"/>
        <text fill="#000000" font-family="sans-serif" font-size="14" lengthAdjust="spacing" textLength="134" x="443"
              y="606.4873">FlightManagerImpl
        </text>
        <rect fill="#FEFECE" filter="url(#f9wu4lzlmkn2p)" height="30.2969" style="stroke:#A80036;stroke-width:1.5;"
              width="46" x="598" y="53"/>
        <text fill="#000000" font-family="sans-serif" font-size="14" lengthAdjust="spacing" textLength="32" x="605"
              y="72.9951">DAO
        </text>
        <rect fill="#FEFECE" filter="url(#f9wu4lzlmkn2p)" height="30.2969" style="stroke:#A80036;stroke-width:1.5;"
              width="46" x="598" y="586.4922"/>
        <text fill="#000000" font-family="sans-serif" font-size="14" lengthAdjust="spacing" textLength="32" x="605"
              y="606.4873">DAO
        </text>
        <rect fill="#FEFECE" filter="url(#f9wu4lzlmkn2p)" height="30.2969" style="stroke:#A80036;stroke-width:1.5;"
              width="87" x="658" y="53"/>
        <text fill="#000000" font-family="sans-serif" font-size="14" lengthAdjust="spacing" textLength="73" x="665"
              y="72.9951">FlightImpl
        </text>
        <rect fill="#FEFECE" filter="url(#f9wu4lzlmkn2p)" height="30.2969" style="stroke:#A80036;stroke-width:1.5;"
              width="87" x="658" y="586.4922"/>
        <text fill="#000000" font-family="sans-serif" font-size="14" lengthAdjust="spacing" textLength="73" x="665"
              y="606.4873">FlightImpl
        </text>
        <rect fill="#FFFFFF" filter="url(#f9wu4lzlmkn2p)" height="450.0625" style="stroke:#A80036;stroke-width:1.0;"
              width="10" x="132" y="119.4297"/>
        <rect fill="#FFFFFF" filter="url(#f9wu4lzlmkn2p)" height="25" style="stroke:#A80036;stroke-width:1.0;"
              width="10" x="137" y="156.5625"/>
        <rect fill="#FFFFFF" filter="url(#f9wu4lzlmkn2p)" height="180.3984" style="stroke:#A80036;stroke-width:1.0;"
              width="10" x="137" y="368.0938"/>
        <rect fill="#FFFFFF" filter="url(#f9wu4lzlmkn2p)" height="14" style="stroke:#A80036;stroke-width:1.0;"
              width="10" x="314.5" y="217.6953"/>
        <rect fill="#FFFFFF" filter="url(#f9wu4lzlmkn2p)" height="63.1328" style="stroke:#A80036;stroke-width:1.0;"
              width="10" x="507" y="260.8281"/>
        <rect fill="#FFFFFF" filter="url(#f9wu4lzlmkn2p)" height="126.2656" style="stroke:#A80036;stroke-width:1.0;"
              width="10" x="507" y="402.2266"/>
        <rect fill="#FFFFFF" filter="url(#f9wu4lzlmkn2p)" height="68.1328" style="stroke:#A80036;stroke-width:1.0;"
              width="10" x="512" y="439.3594"/>
        <rect fill="#FFFFFF" filter="url(#f9wu4lzlmkn2p)" height="14" style="stroke:#A80036;stroke-width:1.0;"
              width="10" x="618" y="289.9609"/>
        <rect fill="#FFFFFF" filter="url(#f9wu4lzlmkn2p)" height="14" style="stroke:#A80036;stroke-width:1.0;"
              width="10" x="698.5" y="473.4922"/>
        <polygon fill="#A80036" points="120,115.4297,130,119.4297,120,123.4297,124,119.4297"
                 style="stroke:#A80036;stroke-width:1.0;"/>
        <line style="stroke:#A80036;stroke-width:1.0;" x1="33" x2="126" y1="119.4297" y2="119.4297"/>
        <text fill="#000000" font-family="sans-serif" font-size="13" lengthAdjust="spacing" textLength="67" x="40"
              y="114.3638">storeFlight
        </text>
        <line style="stroke:#A80036;stroke-width:1.0;" x1="142" x2="189" y1="143.5625" y2="143.5625"/>
        <line style="stroke:#A80036;stroke-width:1.0;" x1="189" x2="189" y1="143.5625" y2="156.5625"/>
        <line style="stroke:#A80036;stroke-width:1.0;" x1="148" x2="189" y1="156.5625" y2="156.5625"/>
        <polygon fill="#A80036" points="158,152.5625,148,156.5625,158,160.5625,154,156.5625"
                 style="stroke:#A80036;stroke-width:1.0;"/>
        <text fill="#000000" font-family="sans-serif" font-size="13" lengthAdjust="spacing" textLength="79" x="154"
              y="138.4966">scrapeFields
        </text>
        <line style="stroke:#A80036;stroke-width:1.0;stroke-dasharray:2.0,2.0;" x1="147" x2="189" y1="180.5625"
              y2="180.5625"/>
        <line style="stroke:#A80036;stroke-width:1.0;stroke-dasharray:2.0,2.0;" x1="189" x2="189" y1="180.5625"
              y2="193.5625"/>
        <line style="stroke:#A80036;stroke-width:1.0;stroke-dasharray:2.0,2.0;" x1="142" x2="189" y1="193.5625"
              y2="193.5625"/>
        <polygon fill="#A80036" points="152,189.5625,142,193.5625,152,197.5625,148,193.5625"
                 style="stroke:#A80036;stroke-width:1.0;"/>
        <polygon fill="#A80036" points="302.5,213.6953,312.5,217.6953,302.5,221.6953,306.5,217.6953"
                 style="stroke:#A80036;stroke-width:1.0;"/>
        <line style="stroke:#A80036;stroke-width:1.0;" x1="142" x2="308.5" y1="217.6953" y2="217.6953"/>
        <text fill="#000000" font-family="sans-serif" font-size="13" lengthAdjust="spacing" textLength="109" x="149"
              y="212.6294">validateFlightInfo
        </text>
        <polygon fill="#A80036" points="153,227.6953,143,231.6953,153,235.6953,149,231.6953"
                 style="stroke:#A80036;stroke-width:1.0;"/>
        <line style="stroke:#A80036;stroke-width:1.0;stroke-dasharray:2.0,2.0;" x1="147" x2="318.5" y1="231.6953"
              y2="231.6953"/>
        <polygon fill="#A80036" points="495,256.8281,505,260.8281,495,264.8281,499,260.8281"
                 style="stroke:#A80036;stroke-width:1.0;"/>
        <line style="stroke:#A80036;stroke-width:1.0;" x1="142" x2="501" y1="260.8281" y2="260.8281"/>
        <text fill="#000000" font-family="sans-serif" font-size="13" lengthAdjust="spacing" textLength="31" x="149"
              y="255.7622">save
        </text>
        <polygon fill="#A80036" points="606,285.9609,616,289.9609,606,293.9609,610,289.9609"
                 style="stroke:#A80036;stroke-width:1.0;"/>
        <line style="stroke:#A80036;stroke-width:1.0;" x1="517" x2="612" y1="289.9609" y2="289.9609"/>
        <text fill="#000000" font-family="sans-serif" font-size="13" lengthAdjust="spacing" textLength="31" x="524"
              y="284.895">save
        </text>
        <polygon fill="#A80036" points="528,299.9609,518,303.9609,528,307.9609,524,303.9609"
                 style="stroke:#A80036;stroke-width:1.0;"/>
        <line style="stroke:#A80036;stroke-width:1.0;stroke-dasharray:2.0,2.0;" x1="522" x2="622" y1="303.9609"
              y2="303.9609"/>
        <line style="stroke:#A80036;stroke-width:1.0;stroke-dasharray:2.0,2.0;" x1="517" x2="559" y1="322.9609"
              y2="322.9609"/>
        <line style="stroke:#A80036;stroke-width:1.0;stroke-dasharray:2.0,2.0;" x1="559" x2="559" y1="322.9609"
              y2="335.9609"/>
        <line style="stroke:#A80036;stroke-width:1.0;stroke-dasharray:2.0,2.0;" x1="512" x2="559" y1="335.9609"
              y2="335.9609"/>
        <polygon fill="#A80036" points="522,331.9609,512,335.9609,522,339.9609,518,335.9609"
                 style="stroke:#A80036;stroke-width:1.0;"/>
        <line style="stroke:#A80036;stroke-width:1.0;" x1="142" x2="189" y1="355.0938" y2="355.0938"/>
        <line style="stroke:#A80036;stroke-width:1.0;" x1="189" x2="189" y1="355.0938" y2="368.0938"/>
        <line style="stroke:#A80036;stroke-width:1.0;" x1="148" x2="189" y1="368.0938" y2="368.0938"/>
        <polygon fill="#A80036" points="158,364.0938,148,368.0938,158,372.0938,154,368.0938"
                 style="stroke:#A80036;stroke-width:1.0;"/>
        <text fill="#000000" font-family="sans-serif" font-size="13" lengthAdjust="spacing" textLength="75" x="154"
              y="350.0278">createFlight
        </text>
        <polygon fill="#A80036" points="495,398.2266,505,402.2266,495,406.2266,499,402.2266"
                 style="stroke:#A80036;stroke-width:1.0;"/>
        <line style="stroke:#A80036;stroke-width:1.0;" x1="147" x2="501" y1="402.2266" y2="402.2266"/>
        <text fill="#000000" font-family="sans-serif" font-size="13" lengthAdjust="spacing" textLength="75" x="154"
              y="397.1606">createFlight
        </text>
        <line style="stroke:#A80036;stroke-width:1.0;" x1="517" x2="564" y1="426.3594" y2="426.3594"/>
        <line style="stroke:#A80036;stroke-width:1.0;" x1="564" x2="564" y1="426.3594" y2="439.3594"/>
        <line style="stroke:#A80036;stroke-width:1.0;" x1="523" x2="564" y1="439.3594" y2="439.3594"/>
        <polygon fill="#A80036" points="533,435.3594,523,439.3594,533,443.3594,529,439.3594"
                 style="stroke:#A80036;stroke-width:1.0;"/>
        <text fill="#000000" font-family="sans-serif" font-size="13" lengthAdjust="spacing" textLength="75" x="529"
              y="421.2935">createFlight
        </text>
        <polygon fill="#A80036" points="686.5,469.4922,696.5,473.4922,686.5,477.4922,690.5,473.4922"
                 style="stroke:#A80036;stroke-width:1.0;"/>
        <line style="stroke:#A80036;stroke-width:1.0;stroke-dasharray:2.0,2.0;" x1="522" x2="692.5" y1="473.4922"
              y2="473.4922"/>
        <text fill="#000000" font-family="sans-serif" font-size="13" lengthAdjust="spacing" textLength="92" x="529"
              y="468.4263">new FlightImpl
        </text>
        <polygon fill="#A80036" points="533,483.4922,523,487.4922,533,491.4922,529,487.4922"
                 style="stroke:#A80036;stroke-width:1.0;"/>
        <line style="stroke:#A80036;stroke-width:1.0;stroke-dasharray:2.0,2.0;" x1="527" x2="702.5" y1="487.4922"
              y2="487.4922"/>
        <line style="stroke:#A80036;stroke-width:1.0;stroke-dasharray:2.0,2.0;" x1="522" x2="564" y1="506.4922"
              y2="506.4922"/>
        <line style="stroke:#A80036;stroke-width:1.0;stroke-dasharray:2.0,2.0;" x1="564" x2="564" y1="506.4922"
              y2="519.4922"/>
        <line style="stroke:#A80036;stroke-width:1.0;stroke-dasharray:2.0,2.0;" x1="517" x2="564" y1="519.4922"
              y2="519.4922"/>
        <polygon fill="#A80036" points="527,515.4922,517,519.4922,527,523.4922,523,519.4922"
                 style="stroke:#A80036;stroke-width:1.0;"/>
        <polygon fill="#A80036" points="158,524.4922,148,528.4922,158,532.4922,154,528.4922"
                 style="stroke:#A80036;stroke-width:1.0;"/>
        <line style="stroke:#A80036;stroke-width:1.0;stroke-dasharray:2.0,2.0;" x1="152" x2="511" y1="528.4922"
              y2="528.4922"/>
        <line style="stroke:#A80036;stroke-width:1.0;stroke-dasharray:2.0,2.0;" x1="147" x2="189" y1="547.4922"
              y2="547.4922"/>
        <line style="stroke:#A80036;stroke-width:1.0;stroke-dasharray:2.0,2.0;" x1="189" x2="189" y1="547.4922"
              y2="560.4922"/>
        <line style="stroke:#A80036;stroke-width:1.0;stroke-dasharray:2.0,2.0;" x1="142" x2="189" y1="560.4922"
              y2="560.4922"/>
        <polygon fill="#A80036" points="152,556.4922,142,560.4922,152,564.4922,148,560.4922"
                 style="stroke:#A80036;stroke-width:1.0;"/>
        <polygon fill="#A80036" points="44,565.4922,34,569.4922,44,573.4922,40,569.4922"
                 style="stroke:#A80036;stroke-width:1.0;"/>
        <line style="stroke:#A80036;stroke-width:1.0;stroke-dasharray:2.0,2.0;" x1="38" x2="136" y1="569.4922"
              y2="569.4922"/><!--MD5=[87cfb75ed031f1abb2d1490833071b1f]
@startuml
actor Officer
Officer -> FlightController : storeFlight
activate FlightController
FlightController -> FlightController : scrapeFields
activate FlightController
FlightController - -> FlightController
deactivate FlightController
FlightController -> FlightRegistrationValidator : validateFlightInfo
activate FlightRegistrationValidator
FlightRegistrationValidator - -> FlightController
deactivate FlightRegistrationValidator
FlightController -> FlightManagerImpl : save
activate FlightManagerImpl
FlightManagerImpl -> DAO : save
activate DAO
DAO - -> FlightManagerImpl
deactivate DAO
FlightManagerImpl - -> FlightManagerImpl
deactivate FlightManagerImpl
FlightController -> FlightController : createFlight
activate FlightController
FlightController -> FlightManagerImpl : createFlight
activate FlightManagerImpl
FlightManagerImpl -> FlightManagerImpl : createFlight
activate FlightManagerImpl
FlightManagerImpl - -> FlightImpl : new FlightImpl
activate FlightImpl
FlightImpl - -> FlightManagerImpl
deactivate FlightImpl
FlightManagerImpl - -> FlightManagerImpl
deactivate FlightManagerImpl
FlightManagerImpl - -> FlightController
deactivate FlightManagerImpl
FlightController - -> FlightController
deactivate FlightController
return
@enduml

PlantUML version 1.2021.7(Sun May 23 12:40:07 UTC 2021)
(GPL source distribution)
Java Runtime: Java(TM) SE Runtime Environment
JVM: Java HotSpot(TM) 64-Bit Server VM
Default Encoding: UTF-8
Language: en
Country: US
-->
    </g>
</svg>
